<svg version="1.1" viewBox="0.0 0.0 2048.0 2048.0" fill="none" stroke="none" stroke-linecap="square" stroke-miterlimit="10" xmlns:xlink="http://www.w3.org/1999/xlink" xmlns="http://www.w3.org/2000/svg"><clipPath id="p.0"><path d="m0 0l2048.0 0l0 2048.0l-2048.0 0l0 -2048.0z" clip-rule="nonzero"/></clipPath><g clip-path="url(#p.0)"><path fill="#000000" fill-opacity="0.0" d="m0 0l2048.0 0l0 2048.0l-2048.0 0z" fill-rule="evenodd"/><path fill="#4c0027" d="m1983.6077 659.2231l-166.1958 1161.3027l-1169.4591 165.03662z" fill-rule="evenodd"/><path stroke="#000000" stroke-width="1.0" stroke-linejoin="round" stroke-linecap="butt" d="m1983.6077 659.2231l-166.1958 1161.3027l-1169.4591 165.03662z" fill-rule="evenodd"/><path fill="#750550" d="m1871.4314 770.617l79.467896 1182.4653l-1190.7703 -78.9137z" fill-rule="evenodd"/><path stroke="#000000" stroke-width="1.0" stroke-linejoin="round" stroke-linecap="butt" d="m1871.4314 770.617l79.467896 1182.4653l-1190.7703 -78.9137z" fill-rule="evenodd"/><path fill="#980f5a" d="m1782.5178 858.9104l104.83838 1031.0719l-1038.3136 -104.10718z" fill-rule="evenodd"/><path stroke="#000000" stroke-width="1.0" stroke-linejoin="round" stroke-linecap="butt" d="m1782.5178 858.9104l104.83838 1031.0719l-1038.3136 -104.10718z" fill-rule="evenodd"/><path fill="#ffffff" d="m1598.3676 1041.7762l219.04431 778.74963l-784.2191 -217.5166z" fill-rule="evenodd"/><path fill="#371b58" d="m62.134964 1410.9696l166.24277 -1161.6312l1169.7899 -165.08331z" fill-rule="evenodd"/><path stroke="#000000" stroke-width="1.0" stroke-linejoin="round" stroke-linecap="butt" d="m62.134964 1410.9696l166.24277 -1161.6312l1169.7899 -165.08331z" fill-rule="evenodd"/><path fill="#4c3575" d="m174.34297 1299.5442l-79.49043 -1182.7998l1191.107 78.93602z" fill-rule="evenodd"/><path stroke="#000000" stroke-width="1.0" stroke-linejoin="round" stroke-linecap="butt" d="m174.34297 1299.5442l-79.49043 -1182.7998l1191.107 78.93602z" fill-rule="evenodd"/><path fill="#7858a6" d="m263.28168 1211.2258l-104.86803 -1031.3636l1038.6073 104.13664z" fill-rule="evenodd"/><path stroke="#000000" stroke-width="1.0" stroke-linejoin="round" stroke-linecap="butt" d="m263.28168 1211.2258l-104.86803 -1031.3636l1038.6073 104.13664z" fill-rule="evenodd"/><path fill="#ffffff" d="m447.48398 1028.3082l-219.10625 -778.96985l784.4409 217.5781z" fill-rule="evenodd"/><path fill="#112031" d="m1398.1168 1985.5658l-1169.719 -164.9895l-166.3137 -1161.5375z" fill-rule="evenodd"/><path stroke="#000000" stroke-width="1.0" stroke-linejoin="round" stroke-linecap="butt" d="m1398.1168 1985.5658l-1169.719 -164.9895l-166.3137 -1161.5375z" fill-rule="evenodd"/><path fill="#152d35" d="m1285.9088 1874.1561l-1191.0173 79.01416l79.400604 -1182.7218z" fill-rule="evenodd"/><path stroke="#000000" stroke-width="1.0" stroke-linejoin="round" stroke-linecap="butt" d="m1285.9088 1874.1561l-1191.0173 79.01416l79.400604 -1182.7218z" fill-rule="evenodd"/><path fill="#345b63" d="m1196.9701 1785.8502l-1038.5265 104.20227l104.787186 -1031.2981z" fill-rule="evenodd"/><path stroke="#000000" stroke-width="1.0" stroke-linejoin="round" stroke-linecap="butt" d="m1196.9701 1785.8502l-1038.5265 104.20227l104.787186 -1031.2981z" fill-rule="evenodd"/><path fill="#ffffff" d="m1012.7678 1602.9585l-784.37 217.6178l219.03528 -778.9302z" fill-rule="evenodd"/><path fill="#9c3d54" d="m645.5118 84.53364l1178.4124 158.39694l139.67297 1189.8918z" fill-rule="evenodd"/><path stroke="#000000" stroke-width="1.0" stroke-linejoin="round" stroke-linecap="butt" d="m645.5118 84.53364l1178.4124 158.39694l139.67297 1189.8918z" fill-rule="evenodd"/><path fill="#e2703a" d="m756.21246 197.77098l1205.9194 -92.08409l-109.23535 1213.8981z" fill-rule="evenodd"/><path stroke="#000000" stroke-width="1.0" stroke-linejoin="round" stroke-linecap="butt" d="m756.21246 197.77098l1205.9194 -92.08409l-109.23535 1213.8981z" fill-rule="evenodd"/><path fill="#eeb76b" d="m843.9564 287.52554l1052.3854 -116.50745l-131.18921 1058.8124z" fill-rule="evenodd"/><path stroke="#000000" stroke-width="1.0" stroke-linejoin="round" stroke-linecap="butt" d="m843.9564 287.52554l1052.3854 -116.50745l-131.18921 1058.8124z" fill-rule="evenodd"/><path fill="#ffffff" d="m1025.6843 473.4176l798.23987 -230.48701l-240.49951 801.00775z" fill-rule="evenodd"/></g></svg>